<?xml version="1.0" encoding="UTF-8"?>
<!DOCTYPE svg PUBLIC "-//W3C//DTD SVG 1.1//EN" "http://www.w3.org/Graphics/SVG/1.1/DTD/svg11.dtd">
<svg xmlns="http://www.w3.org/2000/svg" version="1.1" width="32px" height="32px" style="shape-rendering:geometricPrecision; text-rendering:geometricPrecision; image-rendering:optimizeQuality; fill-rule:evenodd; clip-rule:evenodd" xmlns:xlink="http://www.w3.org/1999/xlink">
<g><path style="opacity:1" fill="#030202" d="M -0.5,-0.5 C 10.1667,-0.5 20.8333,-0.5 31.5,-0.5C 31.5,10.1667 31.5,20.8333 31.5,31.5C 20.8333,31.5 10.1667,31.5 -0.5,31.5C -0.5,20.8333 -0.5,10.1667 -0.5,-0.5 Z"/></g>
<g><path style="opacity:1" fill="#bbafa7" d="M 23.5,9.5 C 22.5041,9.41423 21.6708,9.74756 21,10.5C 20.5357,9.90558 20.369,9.23891 20.5,8.5C 22.7851,5.5482 25.4517,2.88153 28.5,0.5C 29.7199,0.886909 30.3865,1.72024 30.5,3C 28.3178,5.34955 25.9845,7.51621 23.5,9.5 Z"/></g>
<g><path style="opacity:1" fill="#313131" d="M 20.5,8.5 C 20.369,9.23891 20.5357,9.90558 21,10.5C 21.6708,9.74756 22.5041,9.41423 23.5,9.5C 22.6202,12.125 23.2869,14.4584 25.5,16.5C 21.3939,19.4289 17.3939,22.5956 13.5,26C 9.79725,26.5787 6.13059,26.412 2.5,25.5C 7.86947,19.1295 13.8695,13.4629 20.5,8.5 Z"/></g>
<g><path style="opacity:1" fill="#c3c3c3" d="M 25.5,16.5 C 26.5735,17.2506 26.7401,18.2506 26,19.5C 22.7492,23.4217 18.9159,26.5883 14.5,29C 10.5,29.6667 6.5,29.6667 2.5,29C -0.017626,27.8604 -0.017626,26.6937 2.5,25.5C 6.13059,26.412 9.79725,26.5787 13.5,26C 17.3939,22.5956 21.3939,19.4289 25.5,16.5 Z"/></g>
</svg>
